<?xml version="1.0" encoding="us-ascii" standalone="no"?><svg xmlns="http://www.w3.org/2000/svg" xmlns:xlink="http://www.w3.org/1999/xlink" contentStyleType="text/css" height="381px" preserveAspectRatio="none" style="width:465px;height:381px;background:#FFFFFF;" version="1.1" viewBox="0 0 465 381" width="465px" zoomAndPan="magnify"><defs/><g><!--class Grafico--><g id="elem_Grafico"><rect codeLine="1" fill="#F1F1F1" height="83.2188" id="Grafico" rx="2.5" ry="2.5" style="stroke:#181818;stroke-width:0.5;" width="136" x="253" y="51"/><ellipse cx="294.1" cy="67" fill="#B4A7E5" rx="11" ry="11" style="stroke:#181818;stroke-width:1.0;"/><path d="M295.0531,63.6406 L295.0531,70.2969 L296.7719,70.2969 Q297.3813,70.2969 297.6469,70.5313 Q297.9125,70.7656 297.9125,71.1563 Q297.9125,71.5313 297.6469,71.7656 Q297.3813,72 296.7719,72 L291.6313,72 Q291.0219,72 290.7563,71.7656 Q290.4906,71.5313 290.4906,71.1406 Q290.4906,70.7656 290.7563,70.5313 Q291.0219,70.2969 291.6313,70.2969 L293.35,70.2969 L293.35,63.6406 L291.6313,63.6406 Q291.0219,63.6406 290.7563,63.4063 Q290.4906,63.1719 290.4906,62.7813 Q290.4906,62.4063 290.7563,62.1719 Q291.0219,61.9375 291.6313,61.9375 L296.7719,61.9375 Q297.3813,61.9375 297.6469,62.1719 Q297.9125,62.4063 297.9125,62.7813 Q297.9125,63.1719 297.6469,63.4063 Q297.3813,63.6406 296.7719,63.6406 L295.0531,63.6406 Z " fill="#000000"/><text fill="#000000" font-family="sans-serif" font-size="14" font-style="italic" lengthAdjust="spacing" textLength="46" x="313.9" y="72.7285">Grafico</text><line style="stroke:#181818;stroke-width:0.5;" x1="254" x2="388" y1="83" y2="83"/><line style="stroke:#181818;stroke-width:0.5;" x1="254" x2="388" y1="91" y2="91"/><ellipse cx="264" cy="105.3047" fill="#84BE84" rx="3" ry="3" style="stroke:#038048;stroke-width:1.0;"/><text fill="#000000" font-family="sans-serif" font-size="14" lengthAdjust="spacing" textLength="77" x="273" y="109.5332">exibir(): void</text><ellipse cx="264" cy="122.9141" fill="#84BE84" rx="3" ry="3" style="stroke:#038048;stroke-width:1.0;"/><text fill="#000000" font-family="sans-serif" font-size="14" lengthAdjust="spacing" textLength="110" x="273" y="127.1426">getTitulo(): String</text></g><!--class Video--><g id="elem_Video"><rect codeLine="6" fill="#F1F1F1" height="118.4375" id="Video" rx="2.5" ry="2.5" style="stroke:#181818;stroke-width:0.5;" width="226" x="232" y="247"/><ellipse cx="322.75" cy="263" fill="#ADD1B2" rx="11" ry="11" style="stroke:#181818;stroke-width:1.0;"/><path d="M325.5156,258.875 Q325.6719,258.6563 325.8594,258.5469 Q326.0469,258.4375 326.2656,258.4375 Q326.6406,258.4375 326.875,258.7031 Q327.1094,258.9531 327.1094,259.5625 L327.1094,261.0156 Q327.1094,261.625 326.875,261.8906 Q326.6406,262.1563 326.2656,262.1563 Q325.9219,262.1563 325.7188,261.9531 Q325.5156,261.7656 325.4063,261.25 Q325.3594,260.8906 325.1719,260.7031 Q324.8438,260.3281 324.2344,260.1094 Q323.625,259.8906 323,259.8906 Q322.2344,259.8906 321.5938,260.2188 Q320.9688,260.5469 320.4688,261.2969 Q319.9844,262.0469 319.9844,263.0781 L319.9844,264.1719 Q319.9844,265.4063 320.875,266.2344 Q321.7656,267.0469 323.3594,267.0469 Q324.2969,267.0469 324.9531,266.7969 Q325.3438,266.6406 325.7656,266.2031 Q326.0313,265.9375 326.1719,265.8594 Q326.3281,265.7813 326.5313,265.7813 Q326.8594,265.7813 327.1094,266.0469 Q327.375,266.2969 327.375,266.6406 Q327.375,266.9844 327.0313,267.3906 Q326.5313,267.9688 325.7344,268.2969 Q324.6563,268.75 323.3594,268.75 Q321.8438,268.75 320.6406,268.125 Q319.6563,267.625 318.9688,266.5625 Q318.2813,265.4844 318.2813,264.2031 L318.2813,263.0469 Q318.2813,261.7188 318.8906,260.5781 Q319.5156,259.4219 320.6094,258.8125 Q321.7031,258.1875 322.9375,258.1875 Q323.6719,258.1875 324.3125,258.3594 Q324.9688,258.5156 325.5156,258.875 Z " fill="#000000"/><text fill="#000000" font-family="sans-serif" font-size="14" lengthAdjust="spacing" textLength="36" x="343.25" y="268.7285">Video</text><line style="stroke:#181818;stroke-width:0.5;" x1="233" x2="457" y1="279" y2="279"/><rect fill="none" height="6" style="stroke:#C82930;stroke-width:1.0;" width="6" x="240" y="290.3047"/><text fill="#000000" font-family="sans-serif" font-size="14" lengthAdjust="spacing" textLength="75" x="252" y="297.5332">titulo: String</text><rect fill="none" height="6" style="stroke:#C82930;stroke-width:1.0;" width="6" x="240" y="307.9141"/><text fill="#000000" font-family="sans-serif" font-size="14" lengthAdjust="spacing" textLength="92" x="252" y="315.1426">arquivo: String</text><line style="stroke:#181818;stroke-width:0.5;" x1="233" x2="457" y1="322.2188" y2="322.2188"/><ellipse cx="243" cy="336.5234" fill="#84BE84" rx="3" ry="3" style="stroke:#038048;stroke-width:1.0;"/><text fill="#000000" font-family="sans-serif" font-size="14" lengthAdjust="spacing" textLength="46" x="252" y="340.752">Video()</text><rect fill="#F24D5C" height="6" style="stroke:#C82930;stroke-width:1.0;" width="6" x="240" y="351.1328"/><text fill="#000000" font-family="sans-serif" font-size="14" lengthAdjust="spacing" textLength="200" x="252" y="358.3613">carregarArquivoDeVideo(): void</text></g><!--class VideoProxy--><g id="elem_VideoProxy"><rect codeLine="13" fill="#F1F1F1" height="136.0469" id="VideoProxy" rx="2.5" ry="2.5" style="stroke:#181818;stroke-width:0.5;" width="190" x="7" y="238"/><ellipse cx="62.25" cy="254" fill="#ADD1B2" rx="11" ry="11" style="stroke:#181818;stroke-width:1.0;"/><path d="M65.0156,249.875 Q65.1719,249.6563 65.3594,249.5469 Q65.5469,249.4375 65.7656,249.4375 Q66.1406,249.4375 66.375,249.7031 Q66.6094,249.9531 66.6094,250.5625 L66.6094,252.0156 Q66.6094,252.625 66.375,252.8906 Q66.1406,253.1563 65.7656,253.1563 Q65.4219,253.1563 65.2188,252.9531 Q65.0156,252.7656 64.9063,252.25 Q64.8594,251.8906 64.6719,251.7031 Q64.3438,251.3281 63.7344,251.1094 Q63.125,250.8906 62.5,250.8906 Q61.7344,250.8906 61.0938,251.2188 Q60.4688,251.5469 59.9688,252.2969 Q59.4844,253.0469 59.4844,254.0781 L59.4844,255.1719 Q59.4844,256.4063 60.375,257.2344 Q61.2656,258.0469 62.8594,258.0469 Q63.7969,258.0469 64.4531,257.7969 Q64.8438,257.6406 65.2656,257.2031 Q65.5313,256.9375 65.6719,256.8594 Q65.8281,256.7813 66.0313,256.7813 Q66.3594,256.7813 66.6094,257.0469 Q66.875,257.2969 66.875,257.6406 Q66.875,257.9844 66.5313,258.3906 Q66.0313,258.9688 65.2344,259.2969 Q64.1563,259.75 62.8594,259.75 Q61.3438,259.75 60.1406,259.125 Q59.1563,258.625 58.4688,257.5625 Q57.7813,256.4844 57.7813,255.2031 L57.7813,254.0469 Q57.7813,252.7188 58.3906,251.5781 Q59.0156,250.4219 60.1094,249.8125 Q61.2031,249.1875 62.4375,249.1875 Q63.1719,249.1875 63.8125,249.3594 Q64.4688,249.5156 65.0156,249.875 Z " fill="#000000"/><text fill="#000000" font-family="sans-serif" font-size="14" lengthAdjust="spacing" textLength="71" x="82.75" y="259.7285">VideoProxy</text><line style="stroke:#181818;stroke-width:0.5;" x1="8" x2="196" y1="270" y2="270"/><rect fill="none" height="6" style="stroke:#C82930;stroke-width:1.0;" width="6" x="15" y="281.3047"/><text fill="#000000" font-family="sans-serif" font-size="14" lengthAdjust="spacing" textLength="75" x="27" y="288.5332">titulo: String</text><rect fill="none" height="6" style="stroke:#C82930;stroke-width:1.0;" width="6" x="15" y="298.9141"/><text fill="#000000" font-family="sans-serif" font-size="14" lengthAdjust="spacing" textLength="92" x="27" y="306.1426">arquivo: String</text><rect fill="none" height="6" style="stroke:#C82930;stroke-width:1.0;" width="6" x="15" y="316.5234"/><text fill="#000000" font-family="sans-serif" font-size="14" lengthAdjust="spacing" textLength="107" x="27" y="323.752">videoReal: Video</text><line style="stroke:#181818;stroke-width:0.5;" x1="8" x2="196" y1="330.8281" y2="330.8281"/><ellipse cx="18" cy="345.1328" fill="#84BE84" rx="3" ry="3" style="stroke:#038048;stroke-width:1.0;"/><text fill="#000000" font-family="sans-serif" font-size="14" lengthAdjust="spacing" textLength="81" x="27" y="349.3613">VideoProxy()</text><ellipse cx="18" cy="362.7422" fill="#84BE84" rx="3" ry="3" style="stroke:#038048;stroke-width:1.0;"/><text fill="#000000" font-family="sans-serif" font-size="14" lengthAdjust="spacing" textLength="164" x="27" y="366.9707">estaCarregado(): boolean</text></g><!--class ListaDeVideos--><g id="elem_ListaDeVideos"><rect codeLine="21" fill="#F1F1F1" height="171.2656" id="ListaDeVideos" rx="2.5" ry="2.5" style="stroke:#181818;stroke-width:0.5;" width="184" x="10" y="7"/><ellipse cx="52.45" cy="23" fill="#ADD1B2" rx="11" ry="11" style="stroke:#181818;stroke-width:1.0;"/><path d="M55.2156,18.875 Q55.3719,18.6563 55.5594,18.5469 Q55.7469,18.4375 55.9656,18.4375 Q56.3406,18.4375 56.575,18.7031 Q56.8094,18.9531 56.8094,19.5625 L56.8094,21.0156 Q56.8094,21.625 56.575,21.8906 Q56.3406,22.1563 55.9656,22.1563 Q55.6219,22.1563 55.4188,21.9531 Q55.2156,21.7656 55.1063,21.25 Q55.0594,20.8906 54.8719,20.7031 Q54.5438,20.3281 53.9344,20.1094 Q53.325,19.8906 52.7,19.8906 Q51.9344,19.8906 51.2938,20.2188 Q50.6688,20.5469 50.1688,21.2969 Q49.6844,22.0469 49.6844,23.0781 L49.6844,24.1719 Q49.6844,25.4063 50.575,26.2344 Q51.4656,27.0469 53.0594,27.0469 Q53.9969,27.0469 54.6531,26.7969 Q55.0438,26.6406 55.4656,26.2031 Q55.7313,25.9375 55.8719,25.8594 Q56.0281,25.7813 56.2313,25.7813 Q56.5594,25.7813 56.8094,26.0469 Q57.075,26.2969 57.075,26.6406 Q57.075,26.9844 56.7313,27.3906 Q56.2313,27.9688 55.4344,28.2969 Q54.3563,28.75 53.0594,28.75 Q51.5438,28.75 50.3406,28.125 Q49.3563,27.625 48.6688,26.5625 Q47.9813,25.4844 47.9813,24.2031 L47.9813,23.0469 Q47.9813,21.7188 48.5906,20.5781 Q49.2156,19.4219 50.3094,18.8125 Q51.4031,18.1875 52.6375,18.1875 Q53.3719,18.1875 54.0125,18.3594 Q54.6688,18.5156 55.2156,18.875 Z " fill="#000000"/><text fill="#000000" font-family="sans-serif" font-size="14" lengthAdjust="spacing" textLength="91" x="72.55" y="28.7285">ListaDeVideos</text><line style="stroke:#181818;stroke-width:0.5;" x1="11" x2="193" y1="39" y2="39"/><rect fill="none" height="6" style="stroke:#C82930;stroke-width:1.0;" width="6" x="18" y="50.3047"/><text fill="#000000" font-family="sans-serif" font-size="14" lengthAdjust="spacing" textLength="158" x="30" y="57.5332">videos: List&lt;VideoProxy&gt;</text><line style="stroke:#181818;stroke-width:0.5;" x1="11" x2="193" y1="64.6094" y2="64.6094"/><ellipse cx="21" cy="78.9141" fill="#84BE84" rx="3" ry="3" style="stroke:#038048;stroke-width:1.0;"/><text fill="#000000" font-family="sans-serif" font-size="14" lengthAdjust="spacing" textLength="101" x="30" y="83.1426">ListaDeVideos()</text><ellipse cx="21" cy="96.5234" fill="#84BE84" rx="3" ry="3" style="stroke:#038048;stroke-width:1.0;"/><text fill="#000000" font-family="sans-serif" font-size="14" lengthAdjust="spacing" textLength="104" x="30" y="100.752">adicionarVideo()</text><ellipse cx="21" cy="114.1328" fill="#84BE84" rx="3" ry="3" style="stroke:#038048;stroke-width:1.0;"/><text fill="#000000" font-family="sans-serif" font-size="14" lengthAdjust="spacing" textLength="107" x="30" y="118.3613">exibirLista(): void</text><ellipse cx="21" cy="131.7422" fill="#84BE84" rx="3" ry="3" style="stroke:#038048;stroke-width:1.0;"/><text fill="#000000" font-family="sans-serif" font-size="14" lengthAdjust="spacing" textLength="144" x="30" y="135.9707">reproduzirVideo(): void</text><ellipse cx="21" cy="149.3516" fill="#84BE84" rx="3" ry="3" style="stroke:#038048;stroke-width:1.0;"/><text fill="#000000" font-family="sans-serif" font-size="14" lengthAdjust="spacing" textLength="145" x="30" y="153.5801">getVideo(): VideoProxy</text><ellipse cx="21" cy="166.9609" fill="#84BE84" rx="3" ry="3" style="stroke:#038048;stroke-width:1.0;"/><text fill="#000000" font-family="sans-serif" font-size="14" lengthAdjust="spacing" textLength="113" x="30" y="171.1895">getTamanho(): int</text></g><!--reverse link Grafico to Video--><g id="link_Grafico_Video"><path codeLine="31" d="M327.6577,152.1654 C331.2777,184.0954 334.34,211.04 338.39,246.75 " fill="none" id="Grafico-backto-Video" style="stroke:#181818;stroke-width:1.0;stroke-dasharray:7.0,7.0;"/><polygon fill="none" points="325.63,134.28,321.6959,152.8413,333.6195,151.4895,325.63,134.28" style="stroke:#181818;stroke-width:1.0;"/></g><!--reverse link Grafico to VideoProxy--><g id="link_Grafico_VideoProxy"><path codeLine="32" d="M266.0828,146.5348 C235.6528,175.9248 206.76,203.83 171.39,237.98 " fill="none" id="Grafico-backto-VideoProxy" style="stroke:#181818;stroke-width:1.0;stroke-dasharray:7.0,7.0;"/><polygon fill="none" points="279.03,134.03,261.9145,142.219,270.251,150.8505,279.03,134.03" style="stroke:#181818;stroke-width:1.0;"/></g><!--link ListaDeVideos to VideoProxy--><g id="link_ListaDeVideos_VideoProxy"><path codeLine="33" d="M102,178 C102,197.91 102,212.86 102,231.88 " fill="none" id="ListaDeVideos-to-VideoProxy" style="stroke:#181818;stroke-width:1.0;"/><polygon fill="#181818" points="102,237.88,106,228.88,102,232.88,98,228.88,102,237.88" style="stroke:#181818;stroke-width:1.0;"/></g><!--link VideoProxy to Video--><g id="link_VideoProxy_Video"><path codeLine="34" d="M197.4,306 C208.93,306 214.46,306 225.99,306 " fill="none" id="VideoProxy-to-Video" style="stroke:#181818;stroke-width:1.0;"/><polygon fill="#181818" points="231.99,306,222.99,302,226.99,306,222.99,310,231.99,306" style="stroke:#181818;stroke-width:1.0;"/></g><!--SRC=[ZL7BJWCn3BpdAt9ijTf-mAggX43YmW41ukucxc9fIS39hihhtscSx4jSkCwCP-mnkOXy0eFwbk54nkilfNM5PpeIRxQD7ZpPXBGOdoZsdK_WOsHohVfHodGGWducYtcoZYAQ91S4-BsdOGbLejzi4sk06LlWgwowmSALv7N4FVlpn_zpwY4DFI1qJPwViiL85gWmHBZEIrZ9FNhV8RWv-eukah9OoEbY71gXzhFZ8Hckv3a3B1do3dW-l5GiucNFZ6_iRVz9l2uYls32vipnEV0AxaKuSZ4jFpvq_xtRbVF_GjbYVM5T7vRaelcHKBy0]--></g></svg>